Coordinates
version=1
nRows=24
nColumns=24
inDegrees=yes

Units are S.I. units (second, meters, Newtons, ...)
Angles are in degrees.

endheader
time	pelvis_tilt	pelvis_list	pelvis_rotation	pelvis_tx	pelvis_ty	pelvis_tz	hip_flexion_r	hip_adduction_r	hip_rotation_r	knee_angle_r	ankle_angle_r	subtalar_angle_r	mtp_angle_r	hip_flexion_l	hip_adduction_l	hip_rotation_l	knee_angle_l	ankle_angle_l	subtalar_angle_l	mtp_angle_l	lumbar_extension	lumbar_bending	lumbar_rotation
      4.11500000	     -8.51356678	      5.37011055	     -3.46365794	     -0.82556090	     -0.01695108	     -0.34520919	     26.33554943	     -8.42996587	     -1.70906149	    -63.29677860	    -14.87969869	      4.10290850	     28.85618718	     15.44593002	      8.64386758	      5.58988876	    -19.01925585	      3.91797952	     -0.12445493	      5.67859611	     10.02067545	     -9.16606089	     -3.38481317
      4.12000000	     -8.43922944	      5.08867091	     -3.20526996	     -0.81939061	     -0.01629645	     -0.34595123	     26.88776553	     -8.20916673	     -2.09260076	    -62.79652256	    -13.96879856	      3.91789983	     28.49369487	     14.66419701	      8.52253565	      6.18946840	    -18.64849669	      4.19609060	     -0.36524849	      5.17826433	      9.86877407	     -8.88661175	     -3.83287300
      4.12500000	     -8.41623510	      4.75073774	     -2.97514301	     -0.81330350	     -0.01574617	     -0.34665190	     27.47780291	     -7.89932569	     -2.43532378	    -62.20724961	    -13.12571596	      3.76197823	     28.21424508	     13.98109222	      8.30929563	      6.64627213	    -18.33566618	      4.48290610	     -0.53667977	      4.84523685	      9.76314841	     -8.53390098	     -4.30003430
      4.13000000	     -8.38158102	      4.43348005	     -2.74040942	     -0.80720457	     -0.01524486	     -0.34733220	     28.03891895	     -7.62381600	     -2.79778171	    -61.55915721	    -12.30946755	      3.59773113	     27.83214028	     13.27725782	      8.10948663	      7.13019683	    -18.00421282	      4.77246787	     -0.69726864	      4.47015797	      9.65537331	     -8.20678649	     -4.73722952
      4.13500000	     -8.41754072	      4.12347721	     -2.60842270	     -0.80112642	     -0.01489582	     -0.34785161	     28.69065524	     -7.28987725	     -3.03018229	    -60.83985129	    -11.60643553	      3.46817944	     27.67847220	     12.65750873	      7.86498250	      7.44650937	    -17.65502428	      5.05381120	     -0.80525051	      4.32978176	      9.64663795	     -7.86454174	     -5.01220605
      4.14000000	     -8.32476132	      3.83951631	     -2.28353410	     -0.79510982	     -0.01448368	     -0.34859846	     29.13914028	     -7.11293963	     -3.50411216	    -60.08021364	    -10.78618329	      3.27850166	     27.03307009	     11.91475599	      7.70739255	      7.99175278	    -17.35398264	      5.35197698	     -0.92686774	      3.85615431	      9.45264676	     -7.60134480	     -5.58463231
      4.14500000	     -8.38212908	      3.55997779	     -2.17488482	     -0.78906950	     -0.01431065	     -0.34908964	     29.78579580	     -6.79839146	     -3.69307386	    -59.23534495	    -10.13634250	      3.18959211	     26.86248620	     11.33539570	      7.47277590	      8.23634851	    -17.01474459	      5.63590391	     -0.99961547	      3.75394207	      9.47528351	     -7.27287988	     -5.82698880
      4.15000000	     -8.28805542	      3.31212428	     -1.88190699	     -0.78304233	     -0.01402855	     -0.34970767	     30.20395931	     -6.63849626	     -4.12654470	    -58.36300427	     -9.33208156	      3.07463419	     26.01347105	     10.58595392	      7.31298709	      8.71403012	    -16.68912167	      5.96824346	     -1.01313039	      3.27377329	      9.29864723	     -7.04935819	     -6.30171553
      4.15500000	     -8.29234228	      3.06348915	     -1.68759405	     -0.77706738	     -0.01395605	     -0.35019415	     30.73536651	     -6.40179889	     -4.40827762	    -57.41324963	     -8.61221766	      3.00945359	     25.48045707	      9.97380562	      7.11086522	      8.98924738	    -16.38845269	      6.30369720	     -0.99649496	      3.03855261	      9.24211144	     -6.79747722	     -6.66151271
      4.16000000	     -8.31604388	      2.83143870	     -1.49043491	     -0.77113936	     -0.01396868	     -0.35067260	     31.26631554	     -6.18216288	     -4.67563198	    -56.37262544	     -7.98828627	      2.91071259	     25.24247243	      9.39974070	      6.91652942	      9.20540729	    -16.09305010	      6.56846789	     -0.98933043	      2.98309852	      9.20169784	     -6.55909121	     -7.03996029
      4.16500000	     -8.28868015	      2.63246321	     -1.29093093	     -0.76519680	     -0.01401178	     -0.35107042	     31.72077678	     -5.98792747	     -4.92400532	    -55.28581312	     -7.33875545	      2.82480665	     24.83307459	      8.75185595	      6.74589679	      9.47926744	    -15.76685107	      6.86747659	     -0.94330149	      2.90443502	      9.10846144	     -6.37542237	     -7.41873779
      4.17000000	     -8.28204452	      2.44676234	     -1.11343578	     -0.75925435	     -0.01414091	     -0.35141417	     32.17754735	     -5.79258172	     -5.14523613	    -54.13226840	     -6.68654896	      2.79947065	     24.41397307	      8.13318069	      6.57604451	      9.69073399	    -15.44450505	      7.15048826	     -0.88763134	      2.84923634	      9.04415814	     -6.20122216	     -7.74834391
      4.17500000	     -8.34662703	      2.29164113	     -1.00948554	     -0.75330551	     -0.01443899	     -0.35168106	     32.71022509	     -5.58374843	     -5.27137691	    -52.91153024	     -6.10532953	      2.79415232	     24.23068093	      7.59265862	      6.42296140	      9.80273451	    -15.11199921	      7.41216782	     -0.88205682	      2.86205103	      9.07446062	     -6.03429916	     -7.96331566
      4.18000000	     -8.34854319	      2.11811371	     -0.82923281	     -0.74736303	     -0.01468704	     -0.35196005	     33.11175714	     -5.39433837	     -5.47784767	    -51.59843818	     -5.49235316	      2.82392742	     23.91853918	      6.99851020	      6.25147111	      9.97083845	    -14.80787223	      7.66642988	     -0.80458098	      2.88274445	      9.02206999	     -5.87913411	     -8.27140163
      4.18500000	     -8.24689797	      2.00293418	     -0.67956613	     -0.74145762	     -0.01494574	     -0.35211288	     33.40301620	     -5.22997550	     -5.62474453	    -50.29430379	     -4.72622722	      2.92492043	     23.03212634	      6.28303601	      6.12663187	     10.11658240	    -14.48306094	      7.98059053	     -0.65999240	      2.87373994	      8.85225280	     -5.79527195	     -8.57809357
      4.19000000	     -8.28117647	      1.87833334	     -0.52437651	     -0.73553742	     -0.01534651	     -0.35231522	     33.80340077	     -5.06954206	     -5.76905601	    -48.86808655	     -4.15155651	      3.08076763	     22.70976370	      5.72992252	      5.99106770	     10.21909475	    -14.17449346	      8.21519043	     -0.55429081	      2.93283866	      8.83906801	     -5.69225866	     -8.88835663
      4.19500000	     -8.38546655	      1.81663932	     -0.48252806	     -0.72965520	     -0.01593681	     -0.35233073	     34.29593261	     -4.88538608	     -5.74644479	    -47.39291860	     -3.66792076	      3.17805295	     22.60798203	      5.25091158	      5.90885894	     10.25976456	    -13.86088758	      8.44479424	     -0.54401405	      2.98301677	      8.91588652	     -5.64178777	     -9.06848975
      4.20000000	     -8.40955784	      1.66095355	     -0.35235819	     -0.72377342	     -0.01639367	     -0.35244801	     34.60589672	     -4.66868308	     -5.85222380	    -45.78879552	     -3.13494229	      3.45459095	     22.36601148	      4.71429803	      5.73194508	     10.32004809	    -13.60102904	      8.66425946	     -0.45273847	      3.06688607	      8.87847118	     -5.50000244	     -9.28090053
      4.20500000	     -8.23716179	      1.53623481	     -0.19932002	     -0.71785667	     -0.01671195	     -0.35252793	     34.67647695	     -4.51031567	     -6.04217424	    -44.17960461	     -2.47270994	      3.80833478	     21.62543254	      3.94350830	      5.57211587	     10.32428686	    -13.29242926	      8.94229618	     -0.19020342	      3.24241280	      8.63030430	     -5.41674736	     -9.62249321
      4.21000000	     -8.37187960	      1.47544033	     -0.17412561	     -0.71201417	     -0.01742861	     -0.35247312	     35.10123478	     -4.31448009	     -5.99717393	    -42.49577972	     -2.04955051	      4.09368534	     21.46944976	      3.53118497	      5.48688421	     10.29342854	    -13.03467687	      9.13375014	     -0.17958758	      3.30206804	      8.73145259	     -5.36239880	     -9.74714978
      4.21500000	     -8.24035535	      1.32997997	     -0.04923731	     -0.70612915	     -0.01783917	     -0.35247154	     35.14389310	     -4.11444567	     -6.13813831	    -40.73881064	     -1.42950271	      4.67432843	     20.81894111	      2.83342721	      5.29437468	     10.20965668	    -12.76990314	      9.39844282	      0.11542776	      3.54246603	      8.51528355	     -5.25257743	    -10.02903050
      4.22000000	     -8.24150438	      1.21888094	     -0.00242558	     -0.70025725	     -0.01843999	     -0.35235642	     35.32598088	     -3.88855937	     -6.16295876	    -38.93299531	     -0.92045021	      5.22349933	     20.28968151	      2.28969196	      5.13800108	     10.07441931	    -12.52710616	      9.62297390	      0.31307631	      3.74899385	      8.45986772	     -5.16313217	    -10.19800419
      4.22500000	     -8.25284744	      1.10936144	      0.04784700	     -0.69440395	     -0.01907545	     -0.35224566	     35.48082372	     -3.66888200	     -6.17617281	    -37.05602188	     -0.48036062	      5.81635456	     19.91801203	      1.77347892	      4.98636337	      9.93633192	    -12.31507797	      9.84107294	      0.50708189	      3.94694300	      8.41171594	     -5.07345473	    -10.37194391
      4.23000000	     -8.25054778	      0.98822007	      0.09436963	     -0.68854813	     -0.01971324	     -0.35210141	     35.57894272	     -3.43447853	     -6.17666244	    -35.11714089	     -0.08464414	      6.46167250	     19.58935624	      1.25553405	      4.81954352	      9.76519050	    -12.12771000	     10.06709009	      0.73726568	      4.16495830	      8.34624922	     -4.97323666	    -10.53963824
